# AST/ASF file generated using VICON BodyLanguage
# -----------------------------------------------
:version 1.10
:name VICON
:units
  mass 1.0
  length 0.45
  angle deg
:documentation
   .ast/.asf automatically generated from VICON data using
   VICON BodyBuilder and BodyLanguage model FoxedUp or BRILLIANT.MOD
:root
   order TX TY TZ RX RY RZ
   axis XYZ
   position 0 0 0  
   orientation 0 0 0 
:bonedata
  begin
     id 1 
     name lhipjoint
     direction 0.567149 -0.783011 0.255413 
     length 2.28399 
     axis 0 0 0  XYZ
  end
  begin
     id 2 
     name lfemur
     direction 0.34202 -0.939693 0  
     length 7.34031  
     axis 0 0 20  XYZ
    dof rx ry rz
    limits (-160.0 20.0)
           (-70.0 70.0)
           (-60.0 70.0)
  end
  begin
     id 3 
     name ltibia
     direction 0.34202 -0.939693 0   
     length 6.9833   
     axis 0 0 20   XYZ
    dof rx
    limits (-10.0 170.0)
  end
  begin
     id 4 
     name lfoot
     direction 0.136498 -0.375025 0.91691   
     length 2.33665   
     axis -90 7.62852e-016 20   XYZ
    dof rx rz
    limits (-45.0 90.0)
           (-70.0 20.0)
  end
  begin
     id 5 
     name ltoes
     direction 1.5367e-011 -4.21617e-011 1   
     length 1.15039   
     axis -90 7.62852e-016 20   XYZ
    dof rx
    limits (-90.0 20.0)
  end
  begin
     id 6 
     name rhipjoint
     direction -0.602854 -0.758518 0.247423   
     length 2.35775  
     axis 0 0 0  XYZ 
  end
  begin
     id 7 
     name rfemur
     direction -0.34202 -0.939693 0   
     length 7.43932   
     axis 0 0 -20   XYZ
    dof rx ry rz
    limits (-160.0 20.0)
           (-70.0 70.0)
           (-70.0 60.0)
  end
  begin
     id 8 
     name rtibia
     direction -0.34202 -0.939693 0   
     length 7.11893   
     axis 0 0 -20   XYZ
    dof rx
    limits (-10.0 170.0)
 end
 begin
     id 9 
     name rfoot
     direction -0.131771 -0.362037 0.922803   
     length 2.53019  
     axis -90 -7.62852e-016 -20   XYZ
    dof rx rz
    limits (-45.0 90.0)
           (-20.0 70.0)
  end
  begin
     id 10 
     name rtoes
     direction -1.53733e-011 -4.21932e-011 1   
     length 1.24596   
     axis -90 -7.62852e-016 -20   XYZ
    dof rx
    limits (-90.0 20.0)
  end
  begin
     id 11 
     name lowerback
     direction 0.0235427 0.999023 -0.0374125   
     length 2.21768   
     axis 0 0 0   XYZ
    dof rx ry rz
    limits (-20.0 45.0)
           (-30.0 30.0)
           (-30.0 30.0)
  end
  begin
     id 12 
     name upperback
     direction 0.0302156 0.996818 -0.073759   
     length 2.20352   
     axis 0 0 0   XYZ
    dof rx ry rz
    limits (-20.0 45.0)
           (-30.0 30.0)
           (-30.0 30.0)
  end
  begin
     id 13 
     name thorax
     direction 0.0187169 0.998235 -0.0563532   
     length 2.22103   
     axis 0 0 0   XYZ
    dof rx ry rz
    limits (-20.0 45.0)
           (-30.0 30.0)
           (-30.0 30.0)
  end
  begin
     id 14 
     name lowerneck
     direction -0.119528 0.987423 0.103481   
     length 1.72948   
     axis 0 0 0   XYZ
    dof rx ry rz
    limits (-20.0 45.0)
           (-30.0 30.0)
           (-30.0 30.0)
  end
  begin
     id 15 
     name upperneck
     direction 0.248049 0.963095 -0.104496   
     length 1.74979   
     axis 0 0 0   XYZ
    dof rx ry rz
    limits (-20.0 45.0)
           (-30.0 30.0)
           (-30.0 30.0)
  end
  begin
     id 16
     name head
     direction 0.0903589 0.994284 -0.056876  
     length 1.78268  
     axis 0 0 0   XYZ
    dof rx ry rz
    limits (-20.0 45.0)
           (-30.0 30.0)
           (-30.0 30.0)
  end
  begin
     id 17 
     name lclavicle
     direction 0.946008 0.242039 -0.215608  
     length 3.80783  
     axis 0 0 0   XYZ
    dof ry rz
    limits (-20.0 10.0)
           (0.0 20.0)
  end
  begin
     id 18 
     name lhumerus
     direction 1 -4.48991e-011 -2.25695e-027   
     length 4.83125   
     axis 180 -30 -90   XYZ
    dof rx ry rz
    limits (-60.0 90.0)
           (-90.0 90.0)
           (-90.0 90.0)
  end
  begin
     id 19
     name lradius
     direction 0.999991 0.00366712 -0.00211721   
     length 3.00391   
     axis 180 -30 -90   XYZ
    dof rx
    limits (-10.0 170.0)
  end
  begin
     id 20
     name lwrist
     direction 0.999991 0.00393016 -0.00141978   
     length 1.50195   
     axis -1.00488e-014 90 90   XYZ
    dof ry
    limits (-180.0 0.0)
 end
  begin
     id 21 
     name lhand
     direction 1 -4.49123e-011 2.72098e-026   
     length 1.2717   
     axis -1.73687e-014 90 90   XYZ
    dof rx rz
    limits (-90.0 90.0)
           (-45.0 45.0)
  end
  begin
     id 22 
     name lfingers
     direction 1 -4.48678e-011 5.4479e-026   
     length 1.02528   
     axis -3.47372e-014 90 90   XYZ
    dof rx
    limits (0.0 90.0)
  end
  begin
     id 23
     name lthumb
     direction 0.707107 -6.34851e-011 0.707107   
     length 1.4721   
     axis -90 45 -1.62303e-014   XYZ
    dof rx rz
    limits (-45.0 45.0)
           (-45.0 45.0)
  end
  begin
     id 24 
     name rclavicle
     direction -0.981723 0.189447 -0.0181673   
     length 3.74989  
     axis 0 0 0   XYZ 
    dof ry rz
    limits (-10.0 20.0)
           (-20.0 0.0)
  end
  begin
     id 25 
     name rhumerus
     direction -1 -4.48985e-011 2.38206e-027  
     length 4.61118   
     axis 180 30 90   XYZ
    dof rx ry rz
    limits (-90.0 60.0)
           (-90.0 90.0)
           (-90.0 90.0)
  end
  begin
     id 26 
     name rradius
     direction -1 -4.48977e-011 7.41019e-027   
     length 2.91491   
     axis 180 30 90   XYZ
    dof rx
    limits (-10.0 170.0)
  end
  begin
     id 27 
     name rwrist
     direction -1 -4.48549e-011 1.3624e-026   
     length 1.45745   
     axis -1.00488e-014 -90 -90   XYZ
    dof ry
    limits (-180.0 0.0)
  end
  begin
     id 28
     name rhand
     direction -1 -4.49107e-011 2.72109e-026   
     length 1.30769   
     axis -1.73687e-014 -90 -90   XYZ
    dof rx rz
    limits (-90.0 90.0)
           (-45.0 45.0)
  end
  begin
     id 29
     name rfingers
     direction -1 -4.48919e-011 5.44468e-026   
     length 1.05429   
     axis -3.47372e-014 -90 -90   XYZ
    dof rx
    limits (0.0 90.0)
  end
  begin
     id 30
     name rthumb
     direction -0.707107 -6.35315e-011 0.707107   
     length 1.51376   
     axis -90 -45 1.62303e-014   XYZ
    dof rx rz
    limits (-45.0 45.0)
           (-45.0 45.0)
  end
:hierarchy
  begin
    root lhipjoint rhipjoint lowerback
    lhipjoint lfemur
    lfemur ltibia
    ltibia lfoot
    lfoot ltoes
    rhipjoint rfemur
    rfemur rtibia
    rtibia rfoot
    rfoot rtoes
    lowerback upperback
    upperback thorax
    thorax lowerneck lclavicle rclavicle
    lowerneck upperneck
    upperneck head
    lclavicle lhumerus
    lhumerus lradius
    lradius lwrist
    lwrist lhand lthumb
    lhand lfingers
    rclavicle rhumerus
    rhumerus rradius
    rradius rwrist
    rwrist rhand rthumb
    rhand rfingers
  end

#!OML:ASF X:\für Bonn\!DataBase\2005_08_11_Bastian_Final\c3d\Bastian.ASF
:FULLY-SPECIFIED
:DEGREES
16
root 0.0498457 17.2588 -0.717987 172.057 -3.86274 -177.382
lowerback 14.3111 -1.03301 -0.218971
upperback 5.44044 -2.08765 0.186466
thorax -2.26771 -1.33836 0.661828
lowerneck -11.1072 -5.18565 -1.94725
upperneck -1.8881 -6.41572 7.82717
head 1.67604 -2.80994 2.55048
rclavicle 5.51627e-015 -1.23246e-014
rhumerus 81.0184 8.23108 29.6741
rradius 42.9979
rwrist -82.9942
rhand -48.4733 -8.90106
rfingers 7.12502
rthumb -21.1231 -37.7704
lclavicle 5.51627e-015 -1.23246e-014
lhumerus 76.5979 -17.2237 -27.8173
lradius 31.6548
lwrist 29.8492
lhand -43.6254 21.196
lfingers 7.12502
lthumb -16.4606 50.5177
rfemur -7.4818 -6.09673 23.0023
rtibia 52.5897
rfoot -16.2693 -10.1314
rtoes -10.0065
lfemur 0.837689 4.28057 -17.7301
ltibia 36.5593
lfoot -19.1322 0.00735485
ltoes -11.597
17
root 0.0661473 17.2805 -0.695496 172.007 -4.19903 -177.291
lowerback 14.6193 -1.08156 -0.214581
upperback 5.53517 -2.17507 0.222126
thorax -2.33062 -1.39233 0.719073
lowerneck -11.3457 -5.26029 -1.93672
upperneck -1.73111 -6.52889 7.70487
head 1.76975 -2.86299 2.49621
rclavicle 2.5345e-015 -9.54166e-015
rhumerus 80.9848 8.79342 29.1804
rradius 42.9438
rwrist -82.2167
rhand -48.5388 -8.89476
rfingers 7.12502
rthumb -21.1861 -37.7571
lclavicle 2.5345e-015 -9.54166e-015
lhumerus 76.4381 -17.7226 -26.2327
lradius 31.515
lwrist 28.3865
lhand -43.5452 20.8782
lfingers 7.12502
lthumb -16.3833 50.2063
rfemur -8.48182 -6.49196 22.97
rtibia 54.0646
rfoot -15.0248 -9.57265
rtoes -9.95549
lfemur 0.229028 4.56345 -17.4523
ltibia 37.3614
lfoot -18.5141 -0.376648
ltoes -13.0028
18
root 0.0840748 17.3028 -0.6722 171.941 -4.59208 -177.156
lowerback 14.9961 -1.16194 -0.163589
upperback 5.59502 -2.2943 0.265104
thorax -2.4671 -1.45987 0.767095
lowerneck -11.5318 -5.3314 -1.92137
upperneck -1.57953 -6.63885 7.56919
head 1.85135 -2.91722 2.43747
rclavicle -4.09496e-014 5.56597e-015
rhumerus 80.9663 9.39871 28.624
rradius 42.8634
rwrist -81.3764
rhand -48.5963 -8.75812
rfingers 7.12502
rthumb -21.2413 -37.6142
lclavicle -4.09496e-014 5.56597e-015
lhumerus 76.3375 -18.2303 -25.0024
lradius 31.4019
lwrist 27.1867
lhand -43.538 20.5747
lfingers 7.12502
lthumb -16.3764 49.9034
rfemur -9.45419 -6.91318 22.9791
rtibia 55.4924
rfoot -13.9161 -9.06329
rtoes -9.69914
lfemur -0.511926 4.91918 -17.1286
ltibia 38.3966
lfoot -17.9185 -0.70658
ltoes -15.2615
19
root 0.103361 17.3221 -0.647198 171.865 -5.05193 -176.998
lowerback 15.4059 -1.25205 -0.092225
upperback 5.67007 -2.42613 0.319429
thorax -2.60457 -1.53515 0.819842
lowerneck -11.8031 -5.40985 -1.90185
upperneck -1.41986 -6.75575 7.43025
head 1.95096 -2.97178 2.37479
rclavicle -2.5842e-015 -1.19271e-015
rhumerus 80.847 9.9357 28.1037
rradius 42.8063
rwrist -80.5892
rhand -48.6571 -8.51148
rfingers 7.12502
rthumb -21.2996 -37.361
lclavicle -2.5842e-015 -1.19271e-015
lhumerus 76.2506 -18.6454 -23.9225
lradius 31.3221
lwrist 26.0953
lhand -43.5843 20.4115
lfingers 7.12502
lthumb -16.421 49.7365
rfemur -10.4137 -7.34207 23.0163
rtibia 56.8897
rfoot -13.0674 -8.63844
rtoes -9.42616
lfemur -1.40093 5.2369 -16.7969
ltibia 39.6827
lfoot -17.3259 -1.03043
ltoes -17.3842
20
root 0.122904 17.3362 -0.62109 171.788 -5.53322 -176.836
lowerback 15.8595 -1.36171 -0.0296471
upperback 5.72178 -2.5817 0.385145
thorax -2.78805 -1.62117 0.897672
lowerneck -12.0627 -5.48201 -1.90763
upperneck -1.26852 -6.86026 7.30238
head 2.04699 -3.02054 2.32112
rclavicle -4.4329e-014 2.78299e-015
rhumerus 80.7097 10.3689 27.6357
rradius 42.7823
rwrist -79.8805
rhand -48.6418 -8.20496
rfingers 7.12502
rthumb -21.285 -37.0562
lclavicle -4.4329e-014 2.78299e-015
lhumerus 76.1871 -19.0455 -23.151
lradius 31.2626
lwrist 25.269
lhand -43.7852 20.2812
lfingers 7.12502
lthumb -16.6144 49.59
rfemur -11.3714 -7.77293 23.048
rtibia 58.2554
rfoot -12.5263 -8.2665
rtoes -9.06681
lfemur -2.44637 5.43816 -16.4836
ltibia 41.2341
lfoot -16.7645 -1.3862
ltoes -18.907
21
root 0.143052 17.3403 -0.591516 171.675 -6.02982 -176.675
lowerback 16.4024 -1.46118 0.0414746
upperback 5.76578 -2.72331 0.45027
thorax -3.02661 -1.70068 0.973806
lowerneck -12.3499 -5.56311 -1.88664
upperneck -1.13435 -6.97559 7.16636
head 2.14122 -3.07369 2.25857
rclavicle -3.11098e-014 -3.97569e-016
rhumerus 80.4962 10.7706 27.0276
rradius 42.7195
rwrist -79.0875
rhand -48.5303 -7.85705
rfingers 7.12502
rthumb -21.1779 -36.7203
lclavicle -3.11098e-014 -3.97569e-016
lhumerus 76.2594 -19.3487 -22.9197
lradius 31.3399
lwrist 24.9402
lhand -44.0407 20.3346
lfingers 7.12502
lthumb -16.8604 49.6226
rfemur -12.3031 -8.19201 23.0786
rtibia 59.6139
rfoot -12.2991 -7.93042
rtoes -8.71603
lfemur -3.59571 5.56078 -16.2031
ltibia 43.0256
lfoot -16.1594 -1.68556
ltoes -20.1684
22
root 0.162606 17.3338 -0.561041 171.559 -6.51416 -176.49
lowerback 16.9526 -1.56476 0.165082
upperback 5.81028 -2.86159 0.506427
thorax -3.27021 -1.77831 1.01301
lowerneck -12.642 -5.64301 -1.88745
upperneck -1.00705 -7.08522 7.09007
head 2.23812 -3.12121 2.21991
rclavicle -2.79292e-014 6.36111e-015
rhumerus 80.27 11.1929 26.1124
rradius 42.5171
rwrist -78.0209
rhand -48.2923 -7.5417
rfingers 7.12502
rthumb -20.9493 -36.4304
lclavicle -2.79292e-014 6.36111e-015
lhumerus 76.3203 -19.5898 -22.6831
lradius 31.3879
lwrist 24.5532
lhand -44.3111 20.3788
lfingers 7.12502
lthumb -17.1207 49.6445
rfemur -13.2309 -8.50411 23.1498
rtibia 60.9422
rfoot -12.3229 -7.67942
rtoes -8.40138
lfemur -4.86587 5.66557 -15.9189
ltibia 45.0185
lfoot -15.5171 -1.94037
ltoes -21.2702
23
root 0.181438 17.3174 -0.529095 171.42 -6.95641 -176.329
lowerback 17.5808 -1.65093 0.262139
upperback 5.83851 -2.97947 0.567888
thorax -3.57007 -1.84595 1.07535
lowerneck -12.9437 -5.17957 -2.01172
upperneck -0.955962 -7.28642 7.00379
head 2.31793 -3.61076 2.1783
rclavicle 3.53837e-014 -3.02153e-014
rhumerus 80.0547 11.6112 25.0467
rradius 42.2387
rwrist -76.834
rhand -48.0002 -7.27789
rfingers 7.12502
rthumb -20.6686 -36.1974
lclavicle 3.53837e-014 -3.02153e-014
lhumerus 76.1708 -19.8456 -21.4726
lradius 31.1489
lwrist 23.2281
lhand -44.4271 20.3106
lfingers 7.12502
lthumb -17.2324 49.5666
rfemur -14.1351 -8.69959 23.2051
rtibia 62.2383
rfoot -12.4395 -7.51163
rtoes -7.66834
lfemur -6.20267 5.74784 -15.6824
ltibia 47.1855
lfoot -14.8533 -2.15941
ltoes -21.9357
24
root 0.198374 17.2934 -0.497237 171.296 -7.35659 -176.163
lowerback 18.2002 -1.72469 0.402497
upperback 5.86395 -3.07186 0.613383
thorax -3.87036 -1.90047 1.09313
lowerneck -13.2366 -5.25539 -2.0175
upperneck -0.906961 -7.39279 6.96182
head 2.39076 -3.66133 2.15111
rclavicle -2.52457e-014 2.82274e-014
rhumerus 79.7724 11.9959 23.917
rradius 41.9841
rwrist -75.6675
rhand -47.709 -7.0326
rfingers 7.12502
rthumb -20.3888 -35.9822
lclavicle -2.52457e-014 2.82274e-014
lhumerus 75.8683 -20.0474 -19.4412
lradius 30.6563
lwrist 21.1455
lhand -44.3479 19.9587
lfingers 7.12502
lthumb -17.1561 49.2213
rfemur -15.0558 -8.85806 23.2636
rtibia 63.496
rfoot -12.5216 -7.34964
rtoes -6.87295
lfemur -7.63626 5.81501 -15.4624
ltibia 49.5024
lfoot -14.2697 -2.31051
ltoes -22.5041
25
root 0.214554 17.2555 -0.465659 171.181 -7.66535 -175.983
lowerback 18.8152 -1.77325 0.573949
upperback 5.87673 -3.12135 0.666597
thorax -4.18244 -1.93332 1.09422
lowerneck -13.4829 -5.33088 -2.0558
upperneck -0.897578 -7.49315 6.93751
head 2.44401 -3.71047 2.13706
rclavicle 5.03919e-014 -2.78299e-014
rhumerus 79.4773 12.3137 22.9054
rradius 41.7759
rwrist -74.7105
rhand -47.5649 -6.81087
rfingers 7.12502
rthumb -20.2503 -35.7753
lclavicle 5.03919e-014 -2.78299e-014
lhumerus 75.5593 -20.1962 -17.5362
lradius 30.2165
lwrist 19.2195
lhand -44.3333 19.6108
lfingers 7.12502
lthumb -17.1421 48.8746
rfemur -15.9825 -8.90042 23.3517
rtibia 64.7315
rfoot -12.4541 -7.22638
rtoes -6.03563
lfemur -9.16852 5.87791 -15.2491
ltibia 51.9602
lfoot -13.7857 -2.38649
ltoes -22.7491
26
root 0.231206 17.1997 -0.432202 171.07 -7.93178 -175.823
lowerback 19.4603 -1.7901 0.775276
upperback 5.87258 -3.11937 0.697654
thorax -4.53057 -1.93994 1.04646
lowerneck -13.732 -5.45186 -2.1394
upperneck -0.870657 -7.64718 6.93907
head 2.51009 -3.78451 2.13533
rclavicle 2.80286e-014 -1.90833e-014
rhumerus 79.0617 12.6178 21.9518
rradius 41.624
rwrist -73.9153
rhand -47.5459 -6.4992
rfingers 7.12502
rthumb -20.2321 -35.4655
lclavicle 2.80286e-014 -1.90833e-014
lhumerus 75.3143 -20.2495 -15.7666
lradius 29.8289
lwrist 17.3557
lhand -44.3178 19.2938
lfingers 7.12502
lthumb -17.1271 48.5589
rfemur -16.9507 -8.87981 23.4232
rtibia 65.9735
rfoot -12.1797 -7.12589
rtoes -4.88659
lfemur -10.7885 5.91511 -15.0798
ltibia 54.5163
lfoot -13.4392 -2.41121
ltoes -22.4059
27
root 0.248357 17.1268 -0.394434 170.949 -8.19625 -175.657
lowerback 20.1611 -1.81164 0.9818
upperback 5.85503 -3.11814 0.734935
thorax -4.92074 -1.94727 1.006
lowerneck -13.9511 -5.5574 -2.23898
upperneck -0.889982 -7.78039 6.97893
head 2.55711 -3.84985 2.15145
rclavicle -3.97569e-016 2.46493e-014
rhumerus 78.6513 12.8454 21.1244
rradius 41.5231
rwrist -73.3544
rhand -47.6449 -6.28297
rfingers 7.12502
rthumb -20.3271 -35.2392
lclavicle -3.97569e-016 2.46493e-014
lhumerus 75.0922 -20.2283 -14.3356
lradius 29.5515
lwrist 15.8905
lhand -44.3516 18.9344
lfingers 7.12502
lthumb -17.1596 48.1967
rfemur -17.9282 -8.85157 23.5006
rtibia 67.2115
rfoot -11.5634 -7.05763
rtoes -3.26466
lfemur -12.4791 5.90918 -14.9199
ltibia 57.1479
lfoot -13.2101 -2.42192
ltoes -22.1585
28
root 0.266235 17.0463 -0.357843 170.829 -8.43066 -175.517
lowerback 20.8571 -1.81942 1.13468
upperback 5.83512 -3.10565 0.788721
thorax -5.30651 -1.94956 1.01078
lowerneck -14.1574 -5.66359 -2.35837
upperneck -0.909684 -7.90807 6.99564
head 2.60129 -3.91273 2.16386
rclavicle -9.93923e-016 -5.96354e-015
rhumerus 78.243 12.8231 20.7184
rradius 41.5862
rwrist -73.3893
rhand -47.879 -6.09304
rfingers 7.12502
rthumb -20.5521 -35.0251
lclavicle -9.93923e-016 -5.96354e-015
lhumerus 74.8868 -20.1249 -13.1816
lradius 29.3555
lwrist 14.7069
lhand -44.391 18.5981
lfingers 7.12502
lthumb -17.1975 47.8571
rfemur -18.8641 -8.80462 23.5469
rtibia 68.4216
rfoot -10.829 -7.04756
rtoes -1.84385
lfemur -14.1685 5.92509 -14.7755
ltibia 59.7993
lfoot -13.0832 -2.48297
ltoes -21.8318
29
root 0.283582 16.9557 -0.323552 170.704 -8.65736 -175.399
lowerback 21.5363 -1.81533 1.31561
upperback 5.81147 -3.06921 0.808663
thorax -5.68979 -1.93975 0.956505
lowerneck -14.2919 -5.78575 -2.49547
upperneck -1.00441 -8.0576 7.07877
head 2.61264 -3.98899 2.202
rclavicle 1.80894e-014 -7.95139e-015
rhumerus 77.7325 12.6274 20.6789
rradius 41.8137
rwrist -73.9558
rhand -48.2399 -5.82758
rfingers 7.12502
rthumb -20.8989 -34.7218
lclavicle 1.80894e-014 -7.95139e-015
lhumerus 74.8429 -19.9202 -12.5043
lradius 29.2586
lwrist 13.933
lhand -44.4846 18.3032
lfingers 7.12502
lthumb -17.2876 47.5543
rfemur -19.74 -8.75288 23.5582
rtibia 69.5966
rfoot -10.0466 -7.15263
rtoes -0.537111
lfemur -15.8245 5.91153 -14.6557
ltibia 62.4245
lfoot -12.9954 -2.61996
ltoes -21.4118
